<svg width="26" height="25" viewBox="0 0 26 25" fill="none" xmlns="http://www.w3.org/2000/svg">
<path d="M7.67875 21.5996C7.09025 21.5996 6.58664 21.4039 6.16791 21.0126C5.74847 20.6206 5.53875 20.1496 5.53875 19.5996V6.59961C5.23558 6.59961 4.98128 6.50394 4.77584 6.31261C4.57111 6.12061 4.46875 5.88294 4.46875 5.59961C4.46875 5.31628 4.57111 5.07861 4.77584 4.88661C4.98128 4.69528 5.23558 4.59961 5.53875 4.59961H9.81875C9.81875 4.31628 9.92147 4.07861 10.1269 3.88661C10.3316 3.69528 10.5856 3.59961 10.8887 3.59961H15.1687C15.4719 3.59961 15.7262 3.69528 15.9317 3.88661C16.1364 4.07861 16.2387 4.31628 16.2387 4.59961H20.5187C20.8219 4.59961 21.0759 4.69528 21.2806 4.88661C21.486 5.07861 21.5887 5.31628 21.5887 5.59961C21.5887 5.88294 21.486 6.12061 21.2806 6.31261C21.0759 6.50394 20.8219 6.59961 20.5187 6.59961V19.5996C20.5187 20.1496 20.3094 20.6206 19.8907 21.0126C19.4712 21.4039 18.9672 21.5996 18.3787 21.5996H7.67875ZM7.67875 6.59961V19.5996H18.3787V6.59961H7.67875ZM9.81875 16.5996C9.81875 16.8829 9.92147 17.1203 10.1269 17.3116C10.3316 17.5036 10.5856 17.5996 10.8887 17.5996C11.1919 17.5996 11.4462 17.5036 11.6517 17.3116C11.8564 17.1203 11.9587 16.8829 11.9587 16.5996V9.59961C11.9587 9.31628 11.8564 9.07861 11.6517 8.88661C11.4462 8.69528 11.1919 8.59961 10.8887 8.59961C10.5856 8.59961 10.3316 8.69528 10.1269 8.88661C9.92147 9.07861 9.81875 9.31628 9.81875 9.59961V16.5996ZM14.0987 16.5996C14.0987 16.8829 14.2015 17.1203 14.4069 17.3116C14.6116 17.5036 14.8656 17.5996 15.1687 17.5996C15.4719 17.5996 15.7262 17.5036 15.9317 17.3116C16.1364 17.1203 16.2387 16.8829 16.2387 16.5996V9.59961C16.2387 9.31628 16.1364 9.07861 15.9317 8.88661C15.7262 8.69528 15.4719 8.59961 15.1687 8.59961C14.8656 8.59961 14.6116 8.69528 14.4069 8.88661C14.2015 9.07861 14.0987 9.31628 14.0987 9.59961V16.5996ZM7.67875 6.59961V19.5996V6.59961Z" fill="white"/>
</svg>
