<svg width="24" height="24" viewBox="0 0 24 24" fill="none" xmlns="http://www.w3.org/2000/svg">
<path d="M12 11.6913C11.0375 11.6913 10.2135 11.3486 9.52813 10.6632C8.84271 9.97782 8.5 9.15386 8.5 8.19138C8.5 7.22888 8.84271 6.40493 9.52813 5.71953C10.2135 5.03411 11.0375 4.69141 12 4.69141C12.9625 4.69141 13.7864 5.03411 14.4718 5.71953C15.1572 6.40493 15.5 7.22888 15.5 8.19138C15.5 9.15386 15.1572 9.97782 14.4718 10.6632C13.7864 11.3486 12.9625 11.6913 12 11.6913ZM17.9807 19.3067H6.0192C5.59742 19.3067 5.23877 19.1589 4.94327 18.8634C4.64776 18.5679 4.5 18.2093 4.5 17.7875V17.0837C4.5 16.5939 4.63302 16.1404 4.89905 15.7231C5.16507 15.3058 5.52051 14.985 5.96537 14.7606C6.95384 14.276 7.95096 13.9125 8.95672 13.6702C9.96249 13.4279 10.9769 13.3068 12 13.3068C13.023 13.3068 14.0375 13.4279 15.0432 13.6702C16.049 13.9125 17.0461 14.276 18.0346 14.7606C18.4794 14.985 18.8349 15.3058 19.1009 15.7231C19.3669 16.1404 19.5 16.5939 19.5 17.0837V17.7875C19.5 18.2093 19.3522 18.5679 19.0567 18.8634C18.7612 19.1589 18.4025 19.3067 17.9807 19.3067ZM5.99997 17.8067H18V17.0837C18 16.8811 17.9413 16.6936 17.824 16.5212C17.7067 16.3487 17.5474 16.208 17.3461 16.099C16.4846 15.6747 15.6061 15.3532 14.7107 15.1346C13.8152 14.916 12.9117 14.8067 12 14.8067C11.0883 14.8067 10.1847 14.916 9.28927 15.1346C8.39384 15.3532 7.51536 15.6747 6.65382 16.099C6.45254 16.208 6.29325 16.3487 6.17595 16.5212C6.05863 16.6936 5.99997 16.8811 5.99997 17.0837V17.8067ZM12 10.1914C12.55 10.1914 13.0208 9.99555 13.4125 9.60388C13.8041 9.21221 14 8.74138 14 8.19138C14 7.64138 13.8041 7.17055 13.4125 6.77888C13.0208 6.38721 12.55 6.19138 12 6.19138C11.45 6.19138 10.9791 6.38721 10.5875 6.77888C10.1958 7.17055 9.99997 7.64138 9.99997 8.19138C9.99997 8.74138 10.1958 9.21221 10.5875 9.60388C10.9791 9.99555 11.45 10.1914 12 10.1914Z" fill="#1DA1F2"/>
</svg>
